/* XPM */
static char *result[] = {
/* columns rows colors chars-per-pixel */
"64 64 153 2 ",
"   c #3B2B26",
".  c #3F2F2A",
"X  c #3F302A",
"o  c #43342E",
"O  c #44342E",
"+  c #473932",
"@  c #473A32",
"#  c #463834",
"$  c #483932",
"%  c #493A33",
"&  c #4A3B34",
"*  c #4C3D36",
"=  c #4C3E36",
"-  c #4E4038",
";  c #4F4038",
":  c #51413A",
">  c #50423A",
",  c #50433A",
"<  c #53443C",
"1  c #52443D",
"2  c #54453E",
"3  c #55453E",
"4  c #55463E",
"5  c #55473E",
"6  c #54483E",
"7  c #514441",
"8  c #504541",
"9  c #534541",
"0  c #544541",
"q  c #544641",
"w  c #574840",
"e  c #574940",
"r  c #584B41",
"t  c #594A42",
"y  c #594B42",
"u  c #584C42",
"i  c #594C42",
"p  c #5D4E46",
"a  c #5D4F46",
"s  c #594E49",
"d  c #5D5146",
"f  c #5F5148",
"g  c #5F5248",
"h  c #5C514E",
"j  c #615349",
"k  c #62534A",
"l  c #61554A",
"z  c #62544A",
"x  c #62554A",
"c  c #61544E",
"v  c #64564C",
"b  c #66574E",
"n  c #66584E",
"m  c #66594E",
"M  c #615855",
"N  c #685951",
"B  c #6A5C52",
"V  c #6B5C52",
"C  c #6A5D52",
"Z  c #6B5C53",
"A  c #6C5F53",
"S  c #6C5F54",
"D  c #6D5F54",
"F  c #665E5C",
"G  c #6A5E59",
"H  c #6C6154",
"J  c #6E6056",
"K  c #6F6056",
"L  c #6E6156",
"P  c #6F6156",
"I  c #6E6057",
"U  c #6F6057",
"Y  c #6E6058",
"T  c #6C605C",
"R  c #72655A",
"E  c #73655A",
"W  c #73665A",
"Q  c #73675A",
"!  c #74675A",
"~  c #75685D",
"^  c #76695C",
"/  c #77695F",
"(  c #78695F",
")  c #6E6865",
"_  c #776960",
"`  c #7A6C60",
"'  c #7C6F62",
"]  c #7C6E63",
"[  c #786E65",
"{  c #716B6A",
"}  c #716C6A",
"|  c #786E6A",
" . c #7A6F6C",
".. c #7E7065",
"X. c #777170",
"o. c #777270",
"O. c #807267",
"+. c #887C6D",
"@. c #897E6E",
"#. c #817A77",
"$. c #847B77",
"%. c #857B77",
"&. c #8B7E71",
"*. c #938877",
"=. c #988F7E",
"-. c #9B8F7F",
";. c #C46D86",
":. c #C77A8C",
">. c #878584",
",. c #8D8C8B",
"<. c #918785",
"1. c #9D9280",
"2. c #9D9380",
"3. c #929292",
"4. c #9D9592",
"5. c gray60",
"6. c #9F9F9F",
"7. c #A19584",
"8. c #A99E8B",
"9. c #A9A18C",
"0. c #ABA18D",
"q. c #ACA18E",
"w. c #AEA590",
"e. c #B1A792",
"r. c #B7AD98",
"t. c #A9A2A0",
"y. c #B5AFAD",
"u. c #B6AFAD",
"i. c #BBBBBB",
"p. c #D0ACA4",
"a. c #C2B9A2",
"s. c #C4BCA4",
"d. c #D3B8AA",
"f. c #C2BDBB",
"g. c #CDC5AC",
"h. c #D3CBB1",
"j. c #D7CAB3",
"k. c #D8D1B6",
"l. c #C1C1C1",
"z. c #C8C8C8",
"x. c #CECAC8",
"c. c #CECAC9",
"v. c gray84",
"b. c #DAD7D7",
"n. c #E6E5E3",
"m. c #E4E4E4",
"M. c #E7E4E4",
"N. c #E6E5E4",
"B. c gray92",
"V. c #F1F1F1",
"C. c #F3F2F2",
"Z. c #F8F8F8",
"A. c white",
/* pixels */
"A.A.A.A.A.A.A.A.A.A.A.A.A.A.A.A.A.A.A.A.A.A.A.A.A.A.A.A.A.A.A.A.A.A.A.A.A.A.A.A.A.A.A.A.A.A.A.A.A.A.A.A.A.A.A.A.A.A.A.A.A.A.A.A.",
"A.A.A.A.A.A.A.A.A.A.A.A.A.A.A.A.A.A.A.A.A.A.A.A.A.A.A.A.A.A.A.A.A.A.A.A.A.A.A.A.A.A.A.A.A.A.A.A.A.A.A.A.A.A.A.A.A.A.A.A.A.A.A.A.",
"A.A.A.A.A.A.A.A.A.A.A.A.A.A.A.A.A.A.A.A.A.A.A.A.A.A.A.A.A.A.A.A.A.A.A.A.A.A.A.A.A.A.A.A.A.A.A.A.A.A.A.A.A.A.A.A.A.A.A.A.A.A.A.A.",
"A.A.A.A.A.A.A.A.A.A.A.A.A.A.A.A.A.A.A.A.A.A.A.A.A.A.A.A.A.A.A.A.A.A.A.A.A.A.A.A.A.A.A.A.A.A.A.A.A.A.A.A.A.A.A.A.A.A.A.A.A.A.A.A.",
"A.A.A.A.A.A.A.A.A.A.A.A.A.A.A.A.A.A.A.A.A.A.A.A.A.A.A.A.A.A.A.A.A.A.A.A.A.A.A.A.A.A.A.A.A.A.A.A.A.A.A.A.A.A.A.A.A.A.A.A.A.A.A.A.",
"A.A.A.A.A.A.A.A.A.A.A.A.A.A.A.A.A.A.A.A.A.A.A.A.A.A.A.A.A.A.A.A.A.A.A.A.A.A.A.A.A.A.A.A.A.A.A.A.A.A.A.A.A.A.A.A.A.A.A.A.A.A.A.A.",
"A.A.A.A.A.A.A.A.A.A.A.A.A.A.A.A.A.A.A.A.A.A.A.A.A.A.A.A.A.A.A.A.A.A.A.A.A.A.A.A.A.A.A.A.A.A.A.A.A.A.A.A.A.A.A.A.A.A.A.A.A.A.A.A.",
"A.A.A.A.A.A.A.A.A.A.A.A.A.A.A.A.A.A.A.A.A.A.A.A.A.A.A.A.A.A.A.A.A.A.A.A.A.A.A.A.A.A.A.A.A.A.A.A.A.A.A.A.A.A.A.A.A.A.A.A.A.A.A.A.",
"A.A.A.A.A.A.A.A.A.A.A.A.A.A.A.A.A.A.A.A.A.A.A.A.A.A.A.A.A.A.A.A.A.A.A.A.A.A.A.A.A.A.A.A.A.A.A.A.A.A.A.A.A.A.A.A.A.A.A.A.A.A.A.A.",
"A.A.A.A.A.A.A.A.A.A.A.A.A.A.A.A.A.A.A.A.A.A.A.A.A.A.n.n.n.n.C.A.A.A.A.A.A.A.A.A.A.A.A.A.A.A.A.A.A.A.A.A.A.A.A.A.A.A.A.A.A.A.A.A.",
"A.A.A.A.A.A.A.A.A.A.A.A.A.A.A.A.A.A.A.A.A.A.A.A.A.A.0       $.A.A.A.A.A.A.A.A.A.A.A.A.A.A.A.A.A.A.A.A.A.A.A.A.A.A.A.A.A.A.A.A.A.",
"A.A.A.A.A.A.A.A.A.A.A.A.A.A.A.A.A.A.A.A.A.A.A.A.A.A.0       $.A.A.A.A.A.A.A.A.A.A.A.A.A.A.A.A.A.A.A.A.A.A.A.A.A.A.A.A.A.A.A.A.A.",
"A.A.A.A.A.A.A.A.A.A.A.A.A.A.A.A.A.A.A.A.A.A.A.A.A.A.0   k ( Y 0 T A.A.A.A.A.A.A.A.A.A.A.A.A.A.A.A.A.A.A.A.A.A.A.A.A.A.A.A.A.A.A.",
"A.A.A.A.A.A.A.A.A.A.A.A.A.A.A.A.A.A.A.A.A.A.A.A.A.A.0   b O.b   9 A.A.A.A.A.A.A.A.A.A.A.A.A.A.A.A.A.A.A.A.A.A.A.A.A.A.A.A.A.A.A.",
"A.A.A.A.A.A.A.A.A.A.A.A.A.A.A.A.A.A.A.A.A.A.A.A.A.A.0   e m m U _ T T N.A.A.A.A.A.A.A.A.A.A.A.A.A.A.A.A.A.A.A.A.A.A.A.A.A.A.A.A.",
"A.A.A.A.A.A.A.A.A.A.A.A.A.A.A.A.A.A.A.A.A.A.A.A.A.A.0   , d C O./     N.A.A.A.A.A.A.A.A.A.A.A.A.A.A.A.A.A.A.A.A.A.A.A.A.A.A.A.A.",
"A.A.A.A.A.A.A.A.A.A.A.A.A.A.A.A.A.A.A.A.A.A.A.A.A.A.t.4.G = f O./     N.A.A.A.A.A.A.A.A.A.A.A.A.A.A.A.A.A.A.A.A.A.A.A.A.A.A.A.A.",
"A.A.A.A.A.A.A.A.A.A.A.A.A.A.A.A.A.A.A.A.A.A.A.A.A.A.A.A.%.  3 O./     N.A.A.A.A.A.A.A.A.A.A.A.A.A.A.A.A.A.A.A.A.A.A.A.A.A.A.A.A.",
"A.A.A.A.A.A.A.A.A.A.A.A.A.A.A.A.A.A.A.A.A.A.A.A.A.A.A.A.%.  3 O./     N.A.A.A.A.A.A.A.A.A.A.A.A.A.A.A.A.A.A.A.A.A.A.A.A.A.A.A.A.",
"A.A.A.A.A.A.A.A.A.A.A.A.A.A.A.A.A.A.A.A.A.A.A.A.A.A.A.A.%.  3 O./     N.A.A.A.A.A.A.A.A.A.A.A.A.A.A.A.A.A.A.A.A.A.A.A.A.A.A.A.A.",
"A.A.A.A.A.A.A.A.A.A.A.A.A.A.A.A.A.A.A.A.A.A.A.A.A.A.n.n. .. 4 ] E . . x.n.C.A.A.A.A.A.A.A.A.A.A.A.A.A.A.A.A.A.A.A.A.A.A.A.A.A.A.",
"A.A.A.A.A.A.A.A.A.A.A.A.A.A.A.A.A.A.A.A.A.A.A.A.A.A.0   , d d d d d d .   y.A.A.A.A.A.A.A.A.A.A.A.A.A.A.A.A.A.A.A.A.A.A.A.A.A.A.",
"A.A.A.A.A.A.A.A.A.A.A.A.A.A.A.A.A.A.A.A.A.A.A.A.A.A.0   , d d d d d d .   y.A.A.A.A.A.A.A.A.A.A.A.A.A.A.A.A.A.A.A.A.A.A.A.A.A.A.",
"A.A.A.A.A.A.A.A.A.A.A.A.A.A.A.A.A.A.A.A.A.f.0 0 0 0 6 u P ] ] ] ] ] ] d u 1 0 0 0 $.A.A.A.A.A.A.A.A.A.A.A.A.A.A.A.A.A.A.A.A.A.A.",
"A.A.A.A.A.A.A.A.A.A.A.A.A.A.A.A.A.A.A.A.A.u.        u d R O.O.O.O.O.O.l d $       T A.A.A.A.A.A.A.A.A.A.A.A.A.A.A.A.A.A.A.A.A.A.",
"A.A.A.A.A.A.A.A.A.A.A.A.A.A.A.A.A.A.A.A.A.u.  . b b & + B O.O.O.O.O.O.- + t b :   T A.A.A.A.A.A.A.A.A.A.A.A.A.A.A.A.A.A.A.A.A.A.",
"A.A.A.A.A.A.A.A.A.A.A.A.A.A.A.A.A.A.A.A.A.u.  O O.O.o   b O.O.O.O.O.O.o   b O.p   T A.A.A.A.A.A.A.A.A.A.A.A.A.A.A.A.A.A.A.A.A.A.",
"A.A.A.A.A.A.A.A.A.A.A.A.A.A.A.A.A.A.A.A.A.u.  % q.q.r = w p v L S p p - = +.q.W   T A.A.A.A.A.A.A.A.A.A.A.A.A.A.A.A.A.A.A.A.A.A.",
"A.A.A.A.A.A.A.A.A.A.A.A.A.A.A.A.A.A.A.A.A.u.  ; k.k.H d $   @ d i     u d 9.k.@.  T A.A.A.A.A.A.A.A.A.A.A.A.A.A.A.A.A.A.A.A.A.A.",
"A.A.A.A.A.A.A.A.A.A.A.A.A.A.A.A.A.A.A.A.A.u.  ; k.k.Q m > O , m x O O l m w.k.@.  T A.A.A.A.A.A.A.A.A.A.A.A.A.A.A.A.A.A.A.A.A.A.",
"A.A.A.A.A.A.A.A.A.A.A.A.A.A.A.A.A.A.A.A.A.u.  ; k.k.&.O.C d C O.] d d ] O.r.k.@.  T A.A.A.A.A.A.A.A.A.A.A.A.A.A.A.A.A.A.A.A.A.A.",
"A.A.A.A.A.A.A.A.A.A.A.A.A.A.A.A.A.A.A.A.A.u.  ; k.k.&.O.C d C O.] d d ] O.r.k.@.  T A.A.A.A.A.A.A.A.A.A.A.A.A.A.A.A.A.A.A.A.A.A.",
"A.A.A.A.A.A.A.A.A.A.A.A.A.A.A.A.A.0       @ d l O.O.O.O.O.O.O.O.O.O.O.O.O.O.O.L d 5         c.A.A.A.A.A.A.A.A.A.A.A.A.A.A.A.A.A.",
"A.A.A.A.A.A.A.A.A.A.A.A.A.A.A.A.A.0       @ d l O.O.O.O.O.O.O.O.O.O.O.O.O.O.O.L d 5         c.A.A.A.A.A.A.A.A.A.A.A.A.A.A.A.A.A.",
"A.A.A.A.A.A.A.A.A.A.A.A.A.A.A.A.A.N.N.|   < ] ] O.O.O.O.O.O.-.g.a.O.O.O.O.O.O...] V     N.N.C.A.A.A.A.A.A.A.A.A.A.A.A.A.A.A.A.A.",
"A.A.A.A.A.A.A.A.A.A.A.A.A.A.A.A.A.A.A.%.  3 O.O.O.O.O.O.O.O.7.k.g.O.O.O.O.O.O.O.O.I     A.A.A.A.A.A.A.A.A.A.A.A.A.A.A.A.A.A.A.A.",
"A.A.A.A.A.A.A.A.A.A.A.A.A.A.A.A.A.<.$.9   * C D O.O.t 4 K O.7.k.g.O.O.t 4 K O.~ C g     $.$.M.A.A.A.A.A.A.A.A.A.A.A.A.A.A.A.A.A.",
"A.A.A.A.A.A.A.A.A.A.A.A.A.A.A.A.A.0       @ d l O.O.o   b O.7.k.g.O.O.o   b O.L d 5         c.A.A.A.A.A.A.A.A.A.A.A.A.A.A.A.A.A.",
"A.A.A.A.A.A.A.A.A.A.A.A.A.A.A.A.A.<.$.q   * C D O.O.o   ' 7.r.k.h.7.7.%   b O.~ C a     $.$.b.A.A.A.A.A.A.A.A.A.A.A.A.A.A.A.A.A.",
"A.A.A.A.A.A.A.A.A.A.A.A.A.A.A.A.A.A.A.%.  3 O.O.O.O.o   2.k.k.k.k.k.k.-   b O.O.O.I     A.A.A.A.A.A.A.A.A.A.A.A.A.A.A.A.A.A.A.A.",
"A.A.A.A.A.A.A.A.A.A.A.A.A.A.A.A.A.B.m.#.7 c J J O.O.j z e.k.j.d.d.k.k.A z ` O./ J N 7 7 m.m.Z.A.A.A.A.A.A.A.A.A.A.A.A.A.A.A.A.A.",
"A.A.A.A.A.A.A.A.A.A.A.A.A.A.A.A.A.6.3.3.3.{   O O.O.g.k.k.k.p.;.:.k.k.k.k.7.O.p   8 3.3.3.3.m.A.A.A.A.A.A.A.A.A.A.A.A.A.A.A.A.A.",
"A.A.A.A.A.A.A.A.A.A.A.A.A.A.A.A.A.6.3.3.3.{   O O.O.g.k.k.k.p.;.:.k.k.k.k.7.O.p   8 3.3.3.3.m.A.A.A.A.A.A.A.A.A.A.A.A.A.A.A.A.A.",
"A.A.A.A.A.A.A.A.A.A.A.A.A.A.V.3.3.3.3.3.3.3.3.>.        , d C O.] d d .       F 3.3.3.3.3.3.3.3.z.A.A.A.A.A.A.A.A.A.A.A.A.A.A.A.",
"A.A.A.A.A.A.A.A.A.A.A.A.A.A.V.3.3.3.3.3.3.3.3.>.        , d C O.] d d .       F 3.3.3.3.3.3.3.3.z.A.A.A.A.A.A.A.A.A.A.A.A.A.A.A.",
"A.A.A.A.A.A.A.A.A.A.A.A.A.A.V.3.3.3.3.3.3.3.3.>.    b U n d y * * d d Z U :   F 3.3.3.3.3.3.3.3.z.A.A.A.A.A.A.A.A.A.A.A.A.A.A.A.",
"A.A.A.A.A.A.A.A.A.A.A.A.A.A.V.3.3.3.3.3.3.3.3.>.    ( O.C d ,   X d d ] O.2   F 3.3.3.3.3.3.3.3.z.A.A.A.A.A.A.A.A.A.A.A.A.A.A.A.",
"A.A.A.A.A.A.A.A.A.A.A.A.A.A.Z.v.v.5.3.3.3.3.3.>.    8.r.! + s } ) + + 0.r.C   F 3.3.3.3.3.3.z.v.B.A.A.A.A.A.A.A.A.A.A.A.A.A.A.A.",
"A.A.A.A.A.A.A.A.A.A.A.A.A.A.A.A.A.6.3.3.3.3.3.>.    s.k.^   h 3.>.    s.k.^   F 3.3.3.3.3.3.m.A.A.A.A.A.A.A.A.A.A.A.A.A.A.A.A.A.",
"A.A.A.A.A.A.A.A.A.A.A.A.A.A.A.A.A.l.i.6.3.3.3.,.h h =.1.z   h 3.>.    *.1.[ h X.3.3.3.3.i.i.B.A.A.A.A.A.A.A.A.A.A.A.A.A.A.A.A.A.",
"A.A.A.A.A.A.A.A.A.A.A.A.A.A.A.A.A.A.A.i.3.3.3.3.3.3.#       h 3.>.        { 3.3.3.3.3.3.A.A.A.A.A.A.A.A.A.A.A.A.A.A.A.A.A.A.A.A.",
"A.A.A.A.A.A.A.A.A.A.A.A.A.A.A.A.A.A.A.l.6.6.6.6.3.3.7 # # # M 3.>.# # # # o.3.5.6.6.6.6.A.A.A.A.A.A.A.A.A.A.A.A.A.A.A.A.A.A.A.A.",
"A.A.A.A.A.A.A.A.A.A.A.A.A.A.A.A.A.A.A.A.A.A.A.V.3.3.3.3.3.3.3.3.3.3.3.3.3.3.3.z.A.A.A.A.A.A.A.A.A.A.A.A.A.A.A.A.A.A.A.A.A.A.A.A.",
"A.A.A.A.A.A.A.A.A.A.A.A.A.A.A.A.A.A.A.A.A.A.A.V.3.3.3.3.3.3.3.3.3.3.3.3.3.3.3.z.A.A.A.A.A.A.A.A.A.A.A.A.A.A.A.A.A.A.A.A.A.A.A.A.",
"A.A.A.A.A.A.A.A.A.A.A.A.A.A.A.A.A.A.A.A.A.A.A.A.A.A.A.A.A.A.A.A.A.A.A.A.A.A.A.A.A.A.A.A.A.A.A.A.A.A.A.A.A.A.A.A.A.A.A.A.A.A.A.A.",
"A.A.A.A.A.A.A.A.A.A.A.A.A.A.A.A.A.A.A.A.A.A.A.A.A.A.A.A.A.A.A.A.A.A.A.A.A.A.A.A.A.A.A.A.A.A.A.A.A.A.A.A.A.A.A.A.A.A.A.A.A.A.A.A.",
"A.A.A.A.A.A.A.A.A.A.A.A.A.A.A.A.A.A.A.A.A.A.A.A.A.A.A.A.A.A.A.A.A.A.A.A.A.A.A.A.A.A.A.A.A.A.A.A.A.A.A.A.A.A.A.A.A.A.A.A.A.A.A.A.",
"A.A.A.A.A.A.A.A.A.A.A.A.A.A.A.A.A.A.A.A.A.A.A.A.A.A.A.A.A.A.A.A.A.A.A.A.A.A.A.A.A.A.A.A.A.A.A.A.A.A.A.A.A.A.A.A.A.A.A.A.A.A.A.A.",
"A.A.A.A.A.A.A.A.A.A.A.A.A.A.A.A.A.A.A.A.A.A.A.A.A.A.A.A.A.A.A.A.A.A.A.A.A.A.A.A.A.A.A.A.A.A.A.A.A.A.A.A.A.A.A.A.A.A.A.A.A.A.A.A.",
"A.A.A.A.A.A.A.A.A.A.A.A.A.A.A.A.A.A.A.A.A.A.A.A.A.A.A.A.A.A.A.A.A.A.A.A.A.A.A.A.A.A.A.A.A.A.A.A.A.A.A.A.A.A.A.A.A.A.A.A.A.A.A.A.",
"A.A.A.A.A.A.A.A.A.A.A.A.A.A.A.A.A.A.A.A.A.A.A.A.A.A.A.A.A.A.A.A.A.A.A.A.A.A.A.A.A.A.A.A.A.A.A.A.A.A.A.A.A.A.A.A.A.A.A.A.A.A.A.A.",
"A.A.A.A.A.A.A.A.A.A.A.A.A.A.A.A.A.A.A.A.A.A.A.A.A.A.A.A.A.A.A.A.A.A.A.A.A.A.A.A.A.A.A.A.A.A.A.A.A.A.A.A.A.A.A.A.A.A.A.A.A.A.A.A.",
"A.A.A.A.A.A.A.A.A.A.A.A.A.A.A.A.A.A.A.A.A.A.A.A.A.A.A.A.A.A.A.A.A.A.A.A.A.A.A.A.A.A.A.A.A.A.A.A.A.A.A.A.A.A.A.A.A.A.A.A.A.A.A.A.",
"A.A.A.A.A.A.A.A.A.A.A.A.A.A.A.A.A.A.A.A.A.A.A.A.A.A.A.A.A.A.A.A.A.A.A.A.A.A.A.A.A.A.A.A.A.A.A.A.A.A.A.A.A.A.A.A.A.A.A.A.A.A.A.A."
};
